<svg version="1.1" xmlns="http://www.w3.org/2000/svg" xmlns:xlink="http://www.w3.org/1999/xlink" width="137.27948" height="140.24416" viewBox="0,0,137.27948,140.24416"><defs><radialGradient cx="240" cy="180" r="68.63974" gradientUnits="userSpaceOnUse" id="color-1"><stop offset="0" stop-color="#a5ffa5"/><stop offset="1" stop-color="#a5ffa5" stop-opacity="0"/></radialGradient></defs><g transform="translate(-171.36026,-108.39558)"><g data-paper-data="{&quot;isPaintingLayer&quot;:true}" fill-rule="nonzero" stroke="none" stroke-linecap="butt" stroke-linejoin="miter" stroke-miterlimit="10" stroke-dasharray="" stroke-dashoffset="0" style="mix-blend-mode: normal"><path d="M171.36026,180c0,-37.90868 30.73107,-68.63974 68.63974,-68.63974c37.90868,0 68.63974,30.73107 68.63974,68.63974c0,37.90868 -30.73107,68.63974 -68.63974,68.63974c-37.90868,0 -68.63974,-30.73107 -68.63974,-68.63974z" fill="url(#color-1)" stroke-width="NaN"/><path d="M192.83702,180c0,-26.04739 21.11559,-47.16298 47.16298,-47.16298c26.04739,0 47.16298,21.11559 47.16298,47.16298c0,26.04739 -21.11559,47.16298 -47.16298,47.16298c-26.04739,0 -47.16298,-21.11559 -47.16298,-47.16298z" fill="#6bad6b" stroke-width="NaN"/><path d="M217.92371,161.18498c0,-12.1924 9.88389,-22.07628 22.07629,-22.07628c12.1924,0 22.07629,9.88388 22.07629,22.07628c0,12.1924 -9.88389,22.07629 -22.07629,22.07629c-12.1924,0 -22.07629,-9.88389 -22.07629,-22.07629z" fill="#c8fcc2" stroke-width="NaN"/><path d="M240,185.26821c26.04739,0 41.51177,20.89527 32.09919,29.51768c-8.39103,7.68661 -19.82278,12.37709 -32.09919,12.37709c-12.64275,0 -24.12363,-4.97459 -32.59202,-13.07318c-8.97873,-8.58664 6.54462,-28.82159 32.59202,-28.82159z" fill="#c8fcc2" stroke-width="NaN"/><text transform="translate(209.02688,124.93559) scale(0.38023,0.38023)" font-size="40" xml:space="preserve" fill="#ffffff" fill-rule="nonzero" stroke="none" stroke-width="1" stroke-linecap="butt" stroke-linejoin="miter" stroke-miterlimit="10" stroke-dasharray="" stroke-dashoffset="0" font-family="Sans Serif" font-weight="normal" text-anchor="start" style="mix-blend-mode: normal"><tspan x="0" dy="0">Your OC</tspan></text></g></g></svg>